<svg width="30" height="30" viewBox="0 0 30 30" fill="none" xmlns="http://www.w3.org/2000/svg">
<path fill-rule="evenodd" clip-rule="evenodd" d="M15 1.25C15.6904 1.25 16.25 1.80964 16.25 2.5V7.5C16.25 8.19036 15.6904 8.75 15 8.75C14.3096 8.75 13.75 8.19036 13.75 7.5V2.5C13.75 1.80964 14.3096 1.25 15 1.25Z" fill="black"/>
<path fill-rule="evenodd" clip-rule="evenodd" d="M15 21.25C15.6904 21.25 16.25 21.8096 16.25 22.5V27.5C16.25 28.1904 15.6904 28.75 15 28.75C14.3096 28.75 13.75 28.1904 13.75 27.5V22.5C13.75 21.8096 14.3096 21.25 15 21.25Z" fill="black"/>
<path fill-rule="evenodd" clip-rule="evenodd" d="M5.27859 5.27871C5.76675 4.79056 6.5582 4.79056 7.04636 5.27871L10.5839 8.81621C11.072 9.30437 11.072 10.0958 10.5839 10.584C10.0957 11.0721 9.30425 11.0721 8.81609 10.584L5.27859 7.04648C4.79044 6.55833 4.79044 5.76687 5.27859 5.27871Z" fill="black"/>
<path fill-rule="evenodd" clip-rule="evenodd" d="M19.4161 19.4162C19.9043 18.928 20.6957 18.928 21.1839 19.4162L24.7214 22.9537C25.2095 23.4418 25.2095 24.2333 24.7214 24.7214C24.2332 25.2096 23.4418 25.2096 22.9536 24.7214L19.4161 21.1839C18.9279 20.6958 18.9279 19.9043 19.4161 19.4162Z" fill="black"/>
<path fill-rule="evenodd" clip-rule="evenodd" d="M1.25 15C1.25 14.3096 1.80964 13.75 2.5 13.75H7.5C8.19036 13.75 8.75 14.3096 8.75 15C8.75 15.6904 8.19036 16.25 7.5 16.25H2.5C1.80964 16.25 1.25 15.6904 1.25 15Z" fill="black"/>
<path fill-rule="evenodd" clip-rule="evenodd" d="M21.25 15C21.25 14.3096 21.8096 13.75 22.5 13.75H27.5C28.1904 13.75 28.75 14.3096 28.75 15C28.75 15.6904 28.1904 16.25 27.5 16.25H22.5C21.8096 16.25 21.25 15.6904 21.25 15Z" fill="black"/>
<path fill-rule="evenodd" clip-rule="evenodd" d="M10.5839 19.4162C11.072 19.9043 11.072 20.6958 10.5839 21.1839L7.04636 24.7214C6.5582 25.2096 5.76675 25.2096 5.27859 24.7214C4.79044 24.2333 4.79044 23.4418 5.27859 22.9537L8.81609 19.4162C9.30425 18.928 10.0957 18.928 10.5839 19.4162Z" fill="black"/>
<path fill-rule="evenodd" clip-rule="evenodd" d="M24.7214 5.27871C25.2095 5.76687 25.2095 6.55833 24.7214 7.04648L21.1839 10.584C20.6957 11.0721 19.9043 11.0721 19.4161 10.584C18.9279 10.0958 18.9279 9.30437 19.4161 8.81621L22.9536 5.27871C23.4418 4.79056 24.2332 4.79056 24.7214 5.27871Z" fill="black"/>
</svg>
