<svg width="34" height="34" viewBox="0 0 34 34" fill="none" xmlns="http://www.w3.org/2000/svg">
<path fill-rule="evenodd" clip-rule="evenodd" d="M19.8333 4.25004C19.8333 3.46764 20.4676 2.83337 21.25 2.83337H29.75C30.5324 2.83337 31.1667 3.46764 31.1667 4.25004V12.75C31.1667 13.5324 30.5324 14.1667 29.75 14.1667C28.9676 14.1667 28.3333 13.5324 28.3333 12.75V5.66671H21.25C20.4676 5.66671 19.8333 5.03244 19.8333 4.25004Z" fill="white"/>
<path fill-rule="evenodd" clip-rule="evenodd" d="M4.24999 19.8334C5.0324 19.8334 5.66666 20.4676 5.66666 21.25V28.3334H12.75C13.5324 28.3334 14.1667 28.9676 14.1667 29.75C14.1667 30.5324 13.5324 31.1667 12.75 31.1667H4.24999C3.46759 31.1667 2.83333 30.5324 2.83333 29.75V21.25C2.83333 20.4676 3.46759 19.8334 4.24999 19.8334Z" fill="white"/>
<path fill-rule="evenodd" clip-rule="evenodd" d="M30.7517 3.24831C31.305 3.80155 31.305 4.69853 30.7517 5.25178L20.8351 15.1684C20.2818 15.7217 19.3848 15.7217 18.8316 15.1684C18.2784 14.6152 18.2784 13.7182 18.8316 13.165L28.7483 3.24831C29.3015 2.69506 30.1985 2.69506 30.7517 3.24831Z" fill="white"/>
<path fill-rule="evenodd" clip-rule="evenodd" d="M15.1684 18.8316C15.7216 19.3848 15.7216 20.2818 15.1684 20.835L5.25173 30.7517C4.69849 31.3049 3.8015 31.3049 3.24826 30.7517C2.69502 30.1985 2.69502 29.3015 3.24826 28.7482L13.1649 18.8316C13.7182 18.2783 14.6152 18.2783 15.1684 18.8316Z" fill="white"/>
</svg>
