<svg width="29" height="29" viewBox="0 0 29 29" fill="none" xmlns="http://www.w3.org/2000/svg">
<path fill-rule="evenodd" clip-rule="evenodd" d="M18.3503 17.4865H19.3049L24.4282 22.634C24.9236 23.1294 24.9236 23.939 24.4282 24.4344C23.9328 24.9298 23.1232 24.9298 22.6278 24.4344L17.4924 19.299V18.3444L17.1661 18.0061C15.4745 19.4561 13.1665 20.2052 10.7136 19.7944C7.35446 19.2265 4.67196 16.4231 4.26112 13.0398C3.63279 7.92855 7.93446 3.62689 13.0457 4.25522C16.429 4.66605 19.2324 7.34855 19.8003 10.7077C20.2111 13.1606 19.462 15.4686 18.012 17.1602L18.3503 17.4865ZM6.6174 12.049C6.6174 15.0577 9.04615 17.4865 12.0549 17.4865C15.0636 17.4865 17.4924 15.0577 17.4924 12.049C17.4924 9.04022 15.0636 6.61147 12.0549 6.61147C9.04615 6.61147 6.6174 9.04022 6.6174 12.049Z" fill="white"/>
</svg>
